<svg width="85" height="85" viewBox="0 0 85 85" fill="none" xmlns="http://www.w3.org/2000/svg">
<circle cx="42.5" cy="42.5" r="42.5" fill="#EF5B09" fill-opacity="0.1"/>
<path d="M42.5109 41.8C47.1501 41.8 50.9109 38.0392 50.9109 33.4C50.9109 28.7608 47.1501 25 42.5109 25C37.8718 25 34.1109 28.7608 34.1109 33.4C34.1109 38.0392 37.8718 41.8 42.5109 41.8Z" stroke="#EF5B09" stroke-width="2" stroke-miterlimit="10"/>
<path d="M27.2109 55.3C26.5109 55.3 25.9109 54.7 26.0109 54C26.7109 47.1 32.5109 41.8 39.5109 41.9H45.4109C52.4109 41.9 58.1109 47.3 58.7109 54.1C58.8109 54.8 58.2109 55.4 57.5109 55.4L27.2109 55.3Z" stroke="#EF5B09" stroke-width="2" stroke-miterlimit="10"/>
</svg>
